<svg width="277" height="326" viewBox="0 0 277 326" fill="none" xmlns="http://www.w3.org/2000/svg">
    <g clip-path="url(#clip0_120_2)">
        <path
            d="M183.021 298.021C173.098 295.5 164.847 295.715 157.348 301.295C155.538 294.67 156.75 287.752 154.557 281.495L152.441 281.741L153.974 300.819C146.444 297.744 140.172 299.774 134.743 305.169C126.661 294.009 112.996 299.02 103.764 306.507C100.528 301.172 96.4639 296.438 89.5933 297.79C83.873 298.913 78.398 301.357 72.2636 303.402C65.3317 296.776 57.1269 297.867 47.7259 303.033C48.2933 296.576 48.7994 290.734 49.3361 284.831C49.4895 283.017 49.8882 281.218 49.8729 279.435C49.7809 271.134 47.8179 268.981 39.5517 268.674C31.5923 268.397 24.323 265.845 17.1764 262.632C10.0298 259.419 7.66805 253.655 8.03612 246.383C8.58822 236.36 9.56973 226.398 10.4132 215.852L15.014 218.742C13.1584 213.101 12.0388 208.458 10.1372 204.184C3.06723 188.119 2.22375 171.532 5.88907 154.637C7.47422 148.439 9.37844 142.328 11.5941 136.328C12.7903 132.684 15.8728 131.316 19.2621 130.578C29.568 128.303 39.8278 125.505 50.2563 124.091C71.0673 121.278 91.9551 118.68 112.889 117.035C138.635 115.225 164.506 116.588 189.922 121.093C205.105 123.63 220.441 126.059 234.642 132.208C245.377 136.943 255.867 142.477 266.311 147.95C268.312 148.962 270.024 150.469 271.285 152.327C272.546 154.185 273.315 156.334 273.519 158.572C275.758 179.326 276.586 199.849 269.209 220.064C265.084 231.425 261.311 242.832 255.56 253.532C248.46 266.783 237.157 274.07 222.956 277.16C212.134 279.737 200.74 278.088 191.087 272.548C187.39 270.618 183.463 269.166 179.401 268.228C178.555 268.13 177.697 268.216 176.887 268.481C176.077 268.747 175.334 269.185 174.708 269.765C173.972 270.457 174.095 272.686 174.586 273.916C176.119 277.775 178.343 281.387 179.739 285.292C181.134 289.197 181.778 293.009 183.021 298.021ZM196.378 196.559C195.259 181.632 194.753 169.825 189.891 158.665C186.962 151.962 182.883 148.534 176.089 149.18C157.103 150.947 138.853 155.605 122.412 165.49C111.677 171.932 105.037 180.448 108.319 195.99C109.816 203.681 113.247 210.862 118.287 216.852C122.597 221.863 126.737 227.49 132.09 230.964C142.515 237.617 154.862 240.582 167.163 239.388C179.217 238.358 188.051 234.392 191.701 221.079C194.078 212.147 195.213 202.816 196.378 196.605V196.559ZM16.8697 184.645C17.2838 193.7 18.4953 204.999 23.6022 215.529C27.1142 222.801 33.0186 225.799 40.9013 224.569C48.5693 223.385 54.5964 219.419 60.2708 214.653C71.3741 205.322 77.8766 192.639 84.5478 180.187C87.0043 175.296 87.4333 169.631 85.7413 164.425C84.0494 159.219 80.3736 154.894 75.5148 152.393C66.2142 148.053 56.347 145.056 46.2076 143.492C37.3127 141.954 24.3384 150.578 21.3785 158.157C18.4033 166.028 17.0997 173.961 16.8697 184.645ZM86.7868 247.905C87.753 249.15 88.6885 250.518 89.854 251.733C94.1788 256.499 99.6231 256.345 103.656 251.195C107.69 246.045 107.199 239.45 105.19 234.023C101.984 225.777 98.0905 217.816 93.55 210.226C90.3755 204.661 87.615 205.06 84.3484 210.718C81.0818 216.375 77.2785 221.74 74.7787 227.628C72.2386 233.59 70.4857 239.859 69.5644 246.275C68.859 251.41 74.5026 254.608 79.2568 252.425C81.8655 251.054 84.3996 249.546 86.8482 247.905H86.7868ZM217.557 177.635C216.683 178.88 215.932 179.818 215.303 180.848C209.613 190.241 207.497 200.833 206.592 211.471C206.255 215.453 207.988 219.865 209.659 223.769C212.267 229.78 225.686 233.531 232.832 232.009C234.074 231.748 235.087 230.472 236.206 229.626L235.915 228.474L230.808 227.736C224.152 226.829 217.741 225.337 215.257 217.974C214.2 215.244 213.745 212.318 213.923 209.396C214.904 201.709 216.484 194.146 217.88 186.536C218.432 183.661 220.333 180.848 217.619 177.635H217.557ZM244.503 251.887C235.301 259.097 224.98 262.033 213.831 263.001C212.706 263.274 211.626 263.709 210.626 264.293C211.192 265.466 211.942 266.541 212.849 267.475C213.863 268.205 215.101 268.553 216.346 268.459C226.836 267.167 236.697 264.231 244.825 257.006C246.911 255.315 246.742 253.808 244.564 251.887H244.503ZM197.268 161.632C201.24 157.65 198.617 153.376 197.866 149.487C196.332 141.57 189.646 136.22 180.582 134.944C174.31 134.068 164.525 137.066 162.179 141.309C170.537 137.604 178.174 137.619 185.873 141.508C194.293 145.721 195.78 153.53 197.329 161.632H197.268ZM39.6437 136.082L40.2419 134.544C39.053 133.593 37.7093 132.855 36.2698 132.361C30.3041 131.547 18.48 138.219 16.1336 143.661C15.7808 144.445 16.3636 145.628 16.517 146.628C17.6058 146.336 19.0014 146.397 19.7375 145.705C25.3505 140.417 31.1782 135.651 39.6437 136.082ZM153.897 249.043C153.974 248.228 154.035 247.398 154.112 246.583C149.189 245.645 144.282 244.646 139.344 243.908C138.699 243.816 137.196 245.261 137.258 245.86C137.361 246.397 137.592 246.901 137.931 247.329C138.27 247.758 138.707 248.097 139.205 248.32C141.699 249.08 144.272 249.549 146.874 249.719C149.229 249.687 151.579 249.461 153.897 249.043V249.043ZM36.5152 237.728C40.5332 235.699 44.4746 233.762 48.324 231.579C48.7534 231.348 48.9067 230.042 48.738 229.427C48.5844 229.15 48.363 228.917 48.0946 228.751C47.8262 228.584 47.5198 228.488 47.2044 228.474C43.079 230.011 38.969 231.548 34.9356 233.362C34.5848 233.701 34.3197 234.12 34.1623 234.582C34.005 235.045 33.9599 235.538 34.0308 236.022C34.1381 236.744 35.411 237.067 36.5152 237.743V237.728ZM72.6163 295.377C74.748 290.534 74.61 282.709 72.3402 280.004C70.1625 282.863 70.3466 293.04 72.6163 295.392V295.377ZM106.126 282.356C102.23 286.645 102.414 292.487 106.126 295.223V282.356ZM92.8752 152.193L91.587 152.454C91.2803 153.361 90.4521 154.529 90.7589 155.129C91.8985 157.097 93.1531 158.997 94.5162 160.817C95.0376 159.71 96.2185 158.373 95.9424 157.527C95.1234 155.639 94.0945 153.85 92.8752 152.193V152.193Z"
            fill="white" />
        <path
            d="M196.041 115.559C192.299 114.913 189.37 114.268 186.395 113.929C158.961 110.705 131.286 110.067 103.733 112.023C81.9406 113.56 60.2094 116.051 38.8463 120.986C30.6721 122.892 22.3293 124.783 14.0939 126.781C11.1187 127.504 9.70774 126.581 8.41951 123.707C1.41093 107.826 -0.352719 91.0543 1.0485e-05 74.1133C0.368076 61.492 2.02437 48.8093 3.57331 36.2188C4.81553 25.9343 9.53904 18.7243 20.9337 16.9103C33.0799 14.8811 44.9347 11.1454 57.0808 9.2238C73.6898 6.44129 90.4828 4.18146 107.184 2.75177C125.357 1.19909 143.607 0.507309 161.857 0C170.065 0.000113084 178.263 0.559958 186.395 1.67566C192.851 2.38282 195.397 6.01085 194.829 13.2362C193.986 24.0895 192.56 34.9121 191.931 45.7808C191.072 60.6773 190.198 75.6198 190.397 90.5316C190.489 97.3265 193.066 104.106 194.569 110.886C194.875 112.223 195.381 113.484 196.041 115.559ZM21.7926 77.7874C21.6314 77.7102 21.5016 77.58 21.4245 77.4185C21.3511 77.2204 21.3412 77.0044 21.3962 76.8005C21.4512 76.5965 21.5683 76.4149 21.7312 76.2809C23.2121 75.4087 24.8301 74.7953 26.5161 74.4668C30.7642 73.1601 35.0583 72.0225 39.291 70.6697C44.9807 68.8711 46.3609 67.1339 46.4529 61.077C46.5756 52.5757 46.4529 44.059 46.4529 35.5424C46.4261 34.2958 46.2772 33.0549 46.0082 31.8375C45.9537 31.2749 45.7793 30.7305 45.497 30.2412C45.2146 29.7519 44.8307 29.329 44.3714 29.0011C43.912 28.6732 43.3878 28.448 42.8341 28.3406C42.2804 28.2332 41.7102 28.2461 41.162 28.3786C35.9477 29.1472 30.6568 29.716 25.5346 30.9459C14.9373 33.4978 15.3514 33.6823 14.7993 44.7816C13.899 62.0404 14.7933 79.3463 17.4678 96.4195C18.434 102.569 19.4768 108.718 19.8909 115.005C20.1209 118.403 21.2558 119.756 24.415 119.002C31.531 117.281 38.7082 115.651 45.6401 113.345C46.7002 112.827 47.6185 112.058 48.3158 111.104C49.0132 110.151 49.4686 109.042 49.6429 107.872C49.3975 98.8177 48.6 89.7784 47.6645 80.7698C47.2811 77.1418 45.0267 75.051 40.9626 75.6659C38.3555 76.0656 35.7177 76.1886 33.0799 76.5115C29.5833 76.9419 26.0867 77.3929 22.59 77.8643C22.4272 77.887 22.2621 77.887 22.0993 77.8643L21.7926 77.7874ZM106.724 68.4253C106.724 75.4507 106.724 82.4762 106.724 89.517C106.724 93.0374 106.724 96.5579 106.831 100.063C106.831 102.415 107.046 105.167 110.052 105.167C113.64 105.167 112.766 101.001 112.735 98.3873C112.582 79.5297 112.362 60.667 112.076 41.7992C111.984 35.8037 111.478 29.8083 111.278 23.7974C111.156 20.2001 109.438 18.1555 105.865 18.4015C99.5004 18.8319 93.1359 19.4161 86.8021 20.2309C84.287 20.5537 83.3669 22.4753 83.4129 25.1502C83.7605 50.403 84.0723 75.6916 84.3484 101.016C84.4185 102.165 84.7846 103.276 85.4109 104.24C86.0372 105.205 86.9022 105.99 87.9217 106.52C88.068 106.612 88.24 106.655 88.4124 106.643C88.6885 106.643 88.8725 106.32 88.9952 106.074C90.2053 103.1 90.6891 99.8798 90.4061 96.6808C90.2374 88.072 90.2067 79.4477 90.2221 70.8388C90.1905 70.744 90.1905 70.6415 90.2221 70.5467C90.3003 70.4823 90.397 70.4446 90.4981 70.4391C92.7065 70.1932 94.9149 70.0241 97.108 69.8088C100.16 69.5014 103.917 69.5936 106.724 68.4253V68.4253ZM149.803 85.1357C148.929 65.1508 148.269 44.9814 147.64 24.935C147.511 22.2955 147.126 19.6749 146.49 17.1102C145.831 14.2662 144.021 13.0824 140.938 13.8357C135.448 15.0502 129.912 16.034 124.375 17.0487C120.726 17.7251 119.1 19.7697 119.529 23.5207C120.02 27.8098 120.541 32.0988 120.833 36.4033C121.554 47.1644 122.121 57.8179 122.827 68.5175C123.532 79.2171 124.698 89.6246 124.805 100.186C124.805 104.229 125.878 105.167 129.314 104.798C135.249 104.275 141.168 103.676 147.104 103.26C149.91 103.045 150.569 101.37 150.447 99.0022C150.222 94.3698 150.007 89.7476 149.803 85.1357ZM155.937 61.8302C155.784 74.8051 155.63 87.7953 155.63 100.77C155.63 102.584 157.164 105.782 158.253 105.951C164.567 106.787 170.919 107.3 177.285 107.488C178.282 107.488 179.34 106.504 180.352 105.951C179.539 104.967 178.819 103.399 177.868 103.122C173.839 101.992 169.741 101.129 165.599 100.539C162.332 100.094 160.998 98.5256 160.998 95.328C160.998 86.673 161.09 78.018 160.998 69.363C160.998 66.2884 162.394 65.0432 165.2 64.8587C166.168 64.9519 167.145 64.8686 168.083 64.6128C169.034 64.1362 170.338 63.0755 170.368 62.3375C170.345 61.7183 170.187 61.1116 169.907 60.5594C169.626 60.0073 169.229 59.5229 168.743 59.14C167.57 58.3793 166.213 57.954 164.817 57.9101C162.179 57.741 161.657 56.3728 161.749 54.0361C162.179 45.9499 162.578 37.8637 162.792 29.7775C162.792 26.7798 164.142 25.965 166.948 26.1341C170.136 26.3829 173.34 26.3314 176.518 25.9804C177.868 25.7959 179.049 24.3047 180.306 23.4131C179.355 22.2294 178.527 20.1694 177.454 20.0157C171.319 19.1855 165.185 18.6475 158.897 18.34C156.259 18.217 156.106 20.4768 156.106 22.5522C156.228 35.6039 156.09 48.7171 155.937 61.8302ZM59.1205 25.3808C55.8693 26.9181 55.1792 30.4078 55.0258 33.6515C54.7958 38.7554 54.7958 43.8592 54.7958 49.0245V104.536C54.6452 105.932 54.9753 107.337 55.7313 108.518C56.4841 109.279 57.4355 109.812 58.4764 110.055C65.6285 112.26 73.3205 111.924 80.2536 109.102C80.985 108.881 81.6218 108.421 82.0633 107.796C82.281 107.18 82.2909 106.509 82.0914 105.887C81.8919 105.265 81.4941 104.725 80.9591 104.352C78.7967 102.446 75.7448 102.031 72.877 101.692L63.3533 100.57C62.945 100.572 62.5489 100.431 62.2338 100.171C61.9643 99.8199 61.8333 99.3821 61.8657 98.9407C61.5181 91.3054 61.3443 83.6753 61.3443 76.0503C61.3443 67.549 61.4363 59.0477 61.9884 50.5618C62.2491 46.7493 62.5712 42.9522 62.7705 39.1243C62.8625 37.2027 62.9239 35.2811 62.9239 33.3594C63.1129 31.6727 62.9722 29.9653 62.5098 28.3325C62.1631 27.5758 61.6365 26.9159 60.9762 26.4108L59.8567 25.4577"
            fill="white" />
        <path
            d="M276.187 130.024L270.206 128.641C272.66 131.485 275.543 133.575 276.479 136.327C277.414 139.079 276.709 142.907 276.709 147.088C272.982 144.506 269.915 142 266.464 140.094C247.754 129.455 228.124 121.185 206.761 117.572C200.626 116.542 199.369 114.836 198.142 108.64C194.799 91.7301 195.658 74.8198 196.946 57.7404C197.682 48.163 198.265 38.5549 198.909 28.916C243.552 38.4319 276.54 86.7954 276.187 130.024ZM264.885 128.656C263.75 123.675 255.069 119.217 250.315 121.077L264.885 128.656ZM203.678 103.875C205.205 105.325 207.11 106.311 209.173 106.719C211.236 107.127 213.372 106.941 215.334 106.181C211.745 102.845 207.712 102.045 203.678 103.875ZM220.839 107.61C222.802 111.531 226.176 111.669 229.903 111.838C228.385 107.61 225.271 106.258 220.839 107.61ZM244.365 118.018L244.871 116.804C242.801 113.36 239.779 112.192 235.792 114.19L244.365 118.018Z"
            fill="white" />
        <path
            d="M89.3479 325.185C86.02 324.892 82.6921 324.677 79.3642 324.308C78.6646 324.298 77.975 324.141 77.34 323.847C76.7049 323.552 76.1385 323.128 75.6774 322.6C75.2163 322.073 74.8707 321.454 74.6631 320.785C74.4554 320.115 74.3903 319.409 74.472 318.713C74.3953 309.489 78.1219 305.215 87.3542 304.001C90.8662 303.524 98.979 308.505 100.574 312.118C102.169 315.73 101.325 321.234 97.9361 323.355C95.5437 324.892 92.3998 325.169 89.6086 325.999L89.3479 325.185Z"
            fill="white" />
        <path
            d="M163.682 312.565C162.946 308.676 164.065 305.124 169.065 303.603C174.064 302.081 181.518 303.495 183.588 307.246C184.784 309.383 185.29 313.272 184.109 315.025C182.361 317.607 178.926 319.145 176.012 320.774C174.923 321.389 173.282 321.02 171.887 321.128C163.559 321.727 163.544 321.712 163.682 312.565Z"
            fill="white" />
        <path
            d="M121.446 306.891C122.136 306.891 122.827 306.891 123.532 306.891C130.433 307.198 133.592 312.072 131.062 318.559C130.832 319.057 130.515 319.51 130.126 319.896C127.489 322.664 117.214 323.801 114.024 321.68C111.708 320.142 109.07 312.072 110.757 309.981C111.999 308.444 114.438 307.736 116.477 307.106C118.108 306.788 119.771 306.664 121.431 306.737L121.446 306.891Z"
            fill="white" />
        <path
            d="M138.147 314.378C139.037 306.415 143.944 303.033 150.217 306.461C154.48 308.798 154.818 313.364 154.818 317.407C154.818 318.944 152.103 321.434 150.37 321.68C146.927 322.18 143.415 321.848 140.126 320.712C138.868 320.235 138.776 316.577 138.147 314.378Z"
            fill="white" />
        <path
            d="M50.6091 311.872C50.6091 308.628 53.3082 306.968 58.8752 306.922C63.476 306.922 66.5432 308.736 66.5432 311.734C66.7119 317.176 63.8134 321.911 60.3014 321.911C58.998 321.922 57.7058 321.668 56.5034 321.163C55.301 320.659 54.2135 319.914 53.3069 318.976C52.4004 318.037 51.6938 316.923 51.23 315.702C50.7662 314.48 50.555 313.178 50.6091 311.872Z"
            fill="white" />
        <path
            d="M135.203 222.479C134.016 221.943 132.885 221.289 131.829 220.527C124.928 213.655 118.302 206.491 115.711 196.76C113.564 188.735 114.959 178.743 122.612 173.178C121.906 174.546 121.6 175.253 121.201 175.883C113.855 187.552 116.37 198.313 123.777 208.305C127.197 212.932 131.001 217.283 135.203 222.479Z"
            fill="white" />
        <path
            d="M41.2081 152.193C23.3569 169.442 27.2829 189.089 34.3835 209.227L32.4819 209.504C30.9482 204.769 29.0619 200.111 27.881 195.299C25.2279 185.061 25.4119 174.776 29.706 165.045C31.5464 160.879 34.7516 157.359 37.6041 153.623C38.2329 152.685 39.9659 152.608 41.2081 152.193Z"
            fill="white" />
        <path
            d="M20.0596 51.9908L20.2129 45.8416C20.2896 42.3366 20.811 38.1551 24.6144 36.8792C28.6184 35.7547 32.691 34.8919 36.8066 34.2965C39.061 33.8353 40.3492 34.5886 40.3185 36.9868C40.2265 44.7809 40.2112 52.575 39.8278 60.3384C39.6504 61.1004 39.2991 61.8108 38.8015 62.4137C38.3039 63.0165 37.6735 63.4954 36.9599 63.8127C33.6919 64.9406 30.3512 65.8446 26.9608 66.5183C21.7925 67.6867 19.7835 63.7819 19.9062 59.2162L20.0596 51.9908Z"
            fill="white" />
        <path
            d="M43.3704 98.1265C43.6815 100.5 43.6142 102.908 43.171 105.26C42.0055 109.287 37.4813 110.24 33.9694 110.948C25.6572 112.577 25.5192 112.162 23.8322 103.584C23.0961 99.7714 22.4827 95.8974 22.0993 92.0388C21.5932 87.0887 23.1881 85.3669 28.2337 84.6598C31.5309 84.1986 34.7975 83.599 38.0641 83.0302C42.1282 82.3077 42.6649 85.8588 42.9103 88.9949C43.1557 91.8082 43.3244 94.6215 43.4471 97.4347C43.3397 97.6653 43.3551 97.8959 43.3704 98.1265Z"
            fill="white" />
        <path
            d="M89.7313 63.5676C89.7313 52.4221 89.5166 42.0454 89.8233 31.5302C89.9614 26.411 93.412 24.351 100.252 24.7046C104.715 24.9198 104.853 28.6094 104.853 31.7147C105.021 41.8763 104.853 52.0225 104.853 62.7374L89.7313 63.5676Z"
            fill="white" />
        <path
            d="M142.932 57.1715C143.254 68.9165 143.592 80.6307 143.592 92.3911C143.668 96.6186 141.138 97.4795 137.948 98.1559C134.758 98.8323 131.814 98.4173 131.2 94.6663C130.372 89.9006 129.912 85.0428 129.513 80.2003C128.087 62.9825 126.86 45.734 125.326 28.5162C124.974 24.427 126.308 22.8743 130.341 22.2901C134.773 21.6291 140.8 19.5999 141.782 25.5031C143.147 33.7738 142.549 42.4134 142.763 50.7763C142.825 52.8978 142.871 55.0346 142.932 57.1715Z"
            fill="white" />
    </g>
    <defs>
        <clipPath id="clip0_120_2">
            <rect width="277" height="326" fill="white" />
        </clipPath>
    </defs>
</svg>